<svg xmlns="http://www.w3.org/2000/svg" width="220.3" height="141.4" viewBox="0 0 220.299 141.396" enable-background="new 0 0 220.299 141.396"><g fill="#38939b"><path d="m66.772 20.986c-.234-.047-.552-.006-.953.121l-2.15.681.793 2.505 2.097-.664c.417-.132.713-.281.889-.448.312-.294.387-.702.221-1.226-.18-.564-.479-.888-.897-.969"/><path d="m76.42 18.543c-.303-.148-.681-.168-1.134-.057l-1.789.438.685 2.797 1.788-.438c.453-.111.777-.311.974-.6.195-.289.233-.682.112-1.176s-.333-.814-.636-.964"/><path d="m171.71 27.428c-.736-.336-1.448-.332-2.135.012-.687.343-1.258 1.016-1.715 2.02s-.59 1.875-.399 2.618c.191.743.655 1.283 1.392 1.619.736.335 1.445.331 2.125-.016.681-.346 1.249-1.021 1.706-2.02.455-.998.591-1.868.407-2.611-.185-.743-.645-1.282-1.381-1.618"/><path d="m85.84 16.511c-.227-.077-.547-.079-.961-.007l-2.222.389.453 2.588 2.166-.379c.431-.076.744-.184.94-.326.349-.25.477-.645.382-1.186-.102-.584-.355-.944-.758-1.079"/><path d="m131.08 15.557c-.802-.113-1.482.092-2.043.617-.561.523-.918 1.33-1.071 2.422-.153 1.09-.033 1.965.361 2.623.394.658.992 1.045 1.793 1.157.802.112 1.479-.093 2.034-.618.554-.525.907-1.333 1.061-2.424.153-1.086.036-1.959-.352-2.619-.386-.66-.981-1.046-1.783-1.158"/><path d="m110.24 0c-42.44 0-81.14 16.254-110.24 42.854l22.373 24.35c23.35-20.891 54.14-33.623 87.86-33.623 33.635 0 64.35 12.67 87.68 33.466l22.382-24.357c-29.08-26.505-67.71-42.69-110.06-42.69m-77.83 45.936l-5.235-8.262 6.06-3.839.927 1.463-4.371 2.771 1.111 1.754 4.01-2.543.909 1.435-4.01 2.543 1.347 2.124 4.572-2.898.941 1.485-6.26 3.967m12.631-7.487l-6.814-4.189 3.318 6.094-1.673.91-4.677-8.589 1.882-1.024 6.67 4.133-3.261-5.989 1.673-.91 4.677 8.589-1.795.975m5.314-2.64l-3.39-7.3-2.665 1.237-.729-1.57 7.185-3.336.729 1.57-2.653 1.232 3.389 7.299-1.866.868m5.558-2.526l-3.566-9.105 6.678-2.615.632 1.611-4.818 1.889.757 1.934 4.424-1.732.619 1.581-4.424 1.732.917 2.341 5.04-1.975.641 1.638-6.902 2.701m13.737-4.912c-.125-.188-.22-.342-.285-.46-.133-.245-.245-.505-.336-.777l-.287-.862c-.196-.592-.425-.956-.685-1.092-.261-.136-.662-.117-1.204.055l-1.903.602 1.157 3.656-1.903.604-2.952-9.324 4.46-1.412c.642-.189 1.157-.264 1.547-.225.391.039.75.164 1.079.375.272.174.512.385.718.636s.366.559.482.926c.141.442.167.913.079 1.412-.089.499-.361.919-.82 1.259.485.036.867.186 1.147.447s.523.719.73 1.373l.198.626c.135.426.243.71.326.851.127.224.303.363.527.417l.074.233-2.149.68m9.117-6.775c-.442.6-1.18 1.025-2.212 1.278l-1.979.483.835 3.416-1.972.482-2.322-9.5 4.079-.998c.94-.229 1.75-.168 2.429.186s1.144 1.043 1.395 2.07c.274 1.122.189 1.983-.253 2.583m8.944 2.617c-.099-.203-.172-.367-.221-.494-.1-.261-.177-.533-.23-.814l-.17-.894c-.115-.612-.293-1-.533-1.173-.24-.17-.641-.205-1.2-.107l-1.967.345.661 3.777-1.967.345-1.686-9.634 4.607-.806c.661-.103 1.182-.108 1.563-.018.382.09.722.262 1.02.515.247.208.455.45.626.726s.29.604.356.982c.08.457.043.928-.11 1.41-.154.482-.48.861-.979 1.138.476.101.834.3 1.077.597.243.296.423.781.541 1.457l.113.646c.077.441.147.736.21.887.097.239.253.4.468.484l.042.241-2.221.39m3.734-.541l-1.224-9.703 2.02-.254 1.224 9.703-2.02.254m10.329-1.657c-.642.644-1.59 1.017-2.847 1.118-1.283.104-2.316-.104-3.099-.625s-1.214-1.287-1.296-2.302l1.944-.157c.1.44.25.764.452.969.37.374.965.527 1.784.462.49-.04.885-.124 1.183-.255.563-.25.824-.65.779-1.201-.025-.322-.188-.56-.486-.713-.299-.149-.763-.265-1.391-.348l-1.074-.146c-1.056-.145-1.788-.337-2.198-.574-.693-.396-1.078-1.074-1.155-2.03-.07-.873.192-1.624.788-2.253.597-.63 1.518-.995 2.763-1.096 1.04-.084 1.948.117 2.727.603s1.227 1.244 1.347 2.277l-1.958.158c-.083-.583-.379-.979-.887-1.187-.339-.137-.75-.186-1.233-.146-.538.043-.959.184-1.263.421s-.44.546-.41.925c.028.349.207.596.537.742.213.099.655.198 1.328.299l1.743.266c.764.116 1.345.307 1.743.572.618.411.962 1.051 1.032 1.92.072.89-.212 1.657-.853 2.301m2.425.505l-.173-9.777 7.172-.127.03 1.731-5.175.091.037 2.076 4.75-.083.029 1.698-4.75.084.045 2.514 5.413-.096.031 1.758-7.409.131m19.19-.135c-.73.539-1.725.765-2.982.675-1.284-.092-2.273-.454-2.968-1.087-.695-.632-1.01-1.455-.934-2.471l1.946.139c.031.45.131.793.3 1.025.31.426.874.668 1.693.727.491.035.894.011 1.208-.073.596-.161.913-.519.952-1.069.023-.322-.102-.582-.374-.779-.272-.191-.713-.376-1.321-.553l-1.04-.307c-1.021-.304-1.717-.604-2.086-.9-.625-.497-.903-1.225-.835-2.182.062-.873.436-1.576 1.12-2.108.684-.532 1.649-.754 2.896-.665 1.04.074 1.909.41 2.604 1.01.696.597 1.024 1.415.986 2.455l-1.959-.141c.006-.589-.227-1.024-.697-1.307-.314-.187-.713-.297-1.197-.332-.538-.037-.976.037-1.312.227-.337.188-.518.473-.545.852-.025.35.114.621.419.815.195.13.618.295 1.268.496l1.683.526c.738.229 1.283.506 1.637.828.549.5.792 1.186.73 2.055-.063.89-.461 1.605-1.192 2.146m11.848-2.766c-.245 1.738-.921 3-2.027 3.788-.838.65-1.949.878-3.333.684s-2.389-.72-3.01-1.577c-.852-1.062-1.154-2.463-.91-4.201.25-1.773.928-3.037 2.034-3.787.837-.65 1.948-.879 3.332-.684 1.385.194 2.389.721 3.01 1.576.852 1.027 1.152 2.427.903 4.201m7.472 6.57l-6.78-1.42 2-9.572 2 .42-1.644 7.851 4.78 1-.36 1.72m9.777-1.244c-.278 1-.649 1.739-1.115 2.211-.862.863-2.108 1.068-3.738.616s-2.594-1.271-2.894-2.454c-.155-.645-.095-1.469.183-2.47l1.606-5.792 2 .555-1.604 5.787c-.18.648-.234 1.142-.164 1.482.092.594.536 1 1.335 1.223.794.221 1.384.1 1.768-.362.235-.256.443-.708.623-1.354l1.604-5.788 2 .555-1.606 5.791m4.662 5.571l-1.942-.675 2.643-7.602-2.776-.966.568-1.635 7.483 2.602-.569 1.635-2.764-.961-2.643 7.602m3.588 1.336l3.602-9.09 1.888.748-3.602 9.09-1.888-.747m10.786 3.709c-.988.387-2.118.289-3.39-.291s-2.086-1.369-2.442-2.367c-.514-1.261-.407-2.689.322-4.287.743-1.631 1.751-2.648 3.03-3.055.988-.385 2.117-.288 3.39.292 1.271.579 2.086 1.369 2.442 2.368.524 1.227.415 2.654-.328 4.283-.728 1.599-1.734 2.617-3.02 3.057m7.355 4.861l-.169-7.998-3.325 6.09-1.672-.912 4.687-8.584 1.881 1.027.14 7.845 3.268-5.985 1.671.912-4.687 8.583-1.794-.978m13.151.012l-1.658-1.053c.285-.517.287-1.01.007-1.482-.188-.312-.486-.6-.896-.859-.455-.289-.876-.432-1.262-.424-.386.006-.68.17-.884.49-.188.295-.193.602-.019.916.111.207.404.553.88 1.039l1.231 1.262c.54.553.89 1.055 1.047 1.506.246.701.135 1.42-.332 2.155-.479.754-1.169 1.195-2.068 1.323s-1.882-.146-2.946-.822c-1.086-.69-1.785-1.479-2.096-2.365-.312-.887-.193-1.76.352-2.618l1.646 1.046c-.186.412-.26.76-.223 1.046.07.521.452 1 1.146 1.442.415.265.781.434 1.097.51.602.141 1.05-.023 1.347-.49.173-.271.187-.559.04-.861-.148-.299-.448-.67-.9-1.115l-.769-.764c-.756-.752-1.225-1.346-1.409-1.783-.313-.734-.214-1.506.301-2.316.47-.738 1.132-1.18 1.987-1.324.854-.143 1.81.121 2.864.791.88.559 1.485 1.267 1.813 2.123.33.853.231 1.73-.296 2.627"/><path d="m109.7 110.75c-9.01 0-16.362-7.514-16.362-16.748 0-4.61 1.628-8.679 4.725-11.763 2.932-3.147 7.509-5.202 11.638-5.202 9.353 0 16.673 7.452 16.673 16.965-.001 9.546-7.168 16.748-16.674 16.748m.593-44.48c-15.717 0-28.02 12.175-28.02 27.736 0 14.912 12.561 27.533 27.43 27.533 15.304 0 27.742-12.345 27.742-27.533-.001-15.296-12.177-27.736-27.15-27.736"/><path d="m109.86 125.22c-10.628 0-20.285 6.454-24.401 16.18h48.813c-4.127-9.726-13.769-16.18-24.412-16.18"/><path d="m62.892 123.02c-5.403 0-9.811-4.504-9.811-10.04 0-2.765.977-5.204 2.833-7.05 1.758-1.887 4.502-3.119 6.978-3.119 5.607 0 9.996 4.469 9.996 10.172 0 5.723-4.297 10.04-9.996 10.04m.354-26.669c-9.423 0-16.8 7.3-16.8 16.63 0 8.939 7.53 16.507 16.445 16.507 9.176 0 16.633-7.401 16.633-16.507 0-9.171-7.3-16.63-16.278-16.63"/><path d="m62.986 131.7c-6.373 0-12.162 3.869-14.63 9.7h29.27c-2.475-5.831-8.256-9.7-14.636-9.7"/><path d="m156.64 123.02c-5.403 0-9.811-4.504-9.811-10.04 0-2.765.977-5.204 2.833-7.05 1.758-1.887 4.502-3.119 6.978-3.119 5.607 0 9.996 4.469 9.996 10.172 0 5.723-4.297 10.04-9.996 10.04m.354-26.669c-9.423 0-16.8 7.3-16.8 16.63 0 8.939 7.53 16.507 16.445 16.507 9.176 0 16.633-7.401 16.633-16.507 0-9.171-7.3-16.63-16.278-16.63"/><path d="m156.74 131.7c-6.373 0-12.162 3.869-14.63 9.7h29.27c-2.475-5.831-8.256-9.7-14.636-9.7"/></g></svg>