<svg xmlns="http://www.w3.org/2000/svg" width="220.3" height="141.77" viewBox="0 0 220.299 141.767" enable-background="new 0 0 220.299 141.767"><g fill="#ec6a36"><path d="m130.12 15.425c-.803-.107-1.482.103-2.039.63-.559.528-.91 1.338-1.057 2.43-.146 1.091-.02 1.965.379 2.621.398.655.998 1.037 1.801 1.146.803.107 1.479-.104 2.029-.632.551-.529.899-1.339 1.046-2.431.146-1.087.022-1.959-.368-2.616-.393-.658-.989-1.041-1.791-1.148"/><path d="m140.88 17.55l-2.209-.459-.535 2.572 2.153.448c.428.089.76.104.994.044.417-.104.681-.423.793-.96.12-.58.018-1.01-.307-1.283-.181-.155-.478-.276-.889-.362"/><path d="m110.24 0c-42.44 0-81.14 16.254-110.24 42.854l22.373 24.35c23.349-20.891 54.14-33.623 87.86-33.623 33.635 0 64.35 12.67 87.68 33.466l22.382-24.357c-29.08-26.505-67.71-42.69-110.06-42.69m-43.5 29.28l-1.411-4.132-3.598 1.229 1.411 4.131-1.921.656-3.16-9.255 1.921-.656 1.205 3.529 3.598-1.229-1.205-3.529 1.921-.655 3.16 9.255-1.921.656m10.697-3.937c-.521.924-1.458 1.562-2.81 1.918-1.352.355-2.481.259-3.389-.29-1.195-.65-2.02-1.825-2.462-3.523-.455-1.732-.318-3.159.413-4.279.521-.924 1.458-1.562 2.81-1.918 1.352-.355 2.481-.259 3.389.289 1.182.618 2 1.794 2.456 3.526.446 1.698.31 3.123-.407 4.277m11.696-1.386l-1.927.339-2.154-5.428-.667-1.803-.012 1.923-.172 5.837-1.869.329-4.428-9.151 2.137-.376 2.243 5.292.547 1.486.013-1.553.112-5.738 2.124-.374 2.115 5.313.563 1.484.037-1.528.303-5.801 2.049-.36-1.014 10.11m7.323-.866l-.875-9.741 2.02-.182.875 9.741-2.02.182m8-.548l-2.054.098-.382-8.04-2.936.14-.083-1.73 7.913-.376.083 1.73-2.923.139.382 8.04m16.495.258l-1.954-.102-.885-5.772-.246-1.906-.442 1.871-1.475 5.65-1.896-.098-2.265-9.91 2.167.112 1 5.659.201 1.571.359-1.51 1.395-5.568 2.153.111.872 5.652.217 1.572.378-1.481 1.595-5.585 2.078.107-3.252 9.627m13.356-3.345c-.233 1.741-.901 3.01-2 3.802-.833.656-1.942.891-3.328.705-1.385-.186-2.393-.705-3.02-1.557-.859-1.057-1.171-2.456-.938-4.196.238-1.775.908-3.042 2.01-3.801.832-.655 1.941-.891 3.327-.705 1.386.187 2.394.705 3.02 1.558.858 1.02 1.168 2.419.931 4.194m9.836-.12c-.095.455-.302.878-.624 1.27-.32.393-.764.624-1.33.696.404.27.665.587.781.952.115.365.104.883-.035 1.555l-.135.643c-.09.438-.135.737-.132.901.001.258.087.465.256.622l-.05.24-2.209-.459c-.016-.226-.023-.405-.023-.541.004-.279.033-.56.088-.842l.172-.893c.119-.612.098-1.042-.062-1.287-.16-.246-.52-.427-1.076-.543l-1.953-.406-.781 3.754-1.956-.406 1.993-9.575 4.579.953c.651.149 1.138.337 1.46.562.32.225.572.51.756.855.152.285.258.587.314.905.055.319.046.667-.033 1.044m6.135 8.915l-1.743-4.926-1.218.694-.887 3.148-1.936-.546 2.652-9.413 1.935.545-1.093 3.879 4.73-2.854 2.541.716-4.953 2.784 2.5 6.686-2.528-.713m12.649-2.969l-1.852-.658c.164-.566.056-1.048-.323-1.445-.253-.264-.608-.477-1.065-.639-.508-.181-.949-.226-1.324-.133-.374.092-.625.317-.752.676-.117.329-.055.629.186.897.154.177.518.448 1.09.816l1.481.956c.649.418 1.102.83 1.356 1.234.395.629.447 1.354.155 2.175-.3.842-.873 1.426-1.722 1.751s-1.867.276-3.055-.146c-1.213-.431-2.07-1.044-2.57-1.839-.501-.795-.58-1.672-.24-2.631l1.838.653c-.09.442-.084.799.016 1.068.185.493.664.877 1.439 1.152.463.165.857.248 1.183.251.617.004 1.019-.255 1.203-.776.108-.304.058-.588-.152-.85-.211-.258-.587-.554-1.126-.886l-.92-.573c-.904-.565-1.494-1.04-1.77-1.425-.471-.646-.545-1.421-.224-2.325.293-.825.841-1.403 1.642-1.733.802-.33 1.791-.286 2.969.132.982.35 1.73.905 2.241 1.666.511.764.61 1.64.296 2.632"/><path d="m74.53 19.309c-.612-.459-1.31-.586-2.092-.38s-1.332.658-1.646 1.358c-.314.7-.332 1.583-.052 2.648.28 1.064.729 1.825 1.347 2.28.618.455 1.318.579 2.101.374.783-.206 1.329-.658 1.637-1.356s.322-1.58.042-2.646c-.279-1.06-.724-1.819-1.337-2.278"/><path d="m165.77 132.85v3.511c0 2.983-2.414 5.401-5.394 5.401h-100.44c-2.982 0-5.398-2.418-5.398-5.401v-3.511h45.11c.368 1.663 1.847 2.633 3.619 2.633h13.767c1.775 0 3.254-.97 3.623-2.633h45.11m-16.781-59.54h-77.67v46.44h77.67v-46.44m7.292 53.727h-92.25v-55.617c0-2.983 2.421-5.4 5.404-5.4h81.45c2.984 0 5.4 2.417 5.4 5.4v55.617"/><path d="m110.08 99.72c-4.244 0-7.706-3.538-7.706-7.887 0-2.171.767-4.087 2.226-5.539 1.381-1.482 3.536-2.45 5.48-2.45 4.404 0 7.851 3.51 7.851 7.989 0 4.495-3.375 7.887-7.851 7.887m.278-20.948c-7.401 0-13.196 5.733-13.196 13.06 0 7.02 5.915 12.966 12.917 12.966 7.207 0 13.06-5.813 13.06-12.966.001-7.204-5.734-13.06-12.785-13.06"/><path d="m110.15 106.53c-5 0-9.552 3.039-11.491 7.619h22.987c-1.943-4.58-6.484-7.619-11.496-7.619"/></g></svg>