<svg xmlns="http://www.w3.org/2000/svg" xmlns:xlink="http://www.w3.org/1999/xlink" width="220.3" height="141.19" viewBox="0 0 220.299 141.195" enable-background="new 0 0 220.299 141.195"><defs><path id="1" d="m112.01 58.56c-12.143 9.962-20.952 11.849-33.02 10.942 0 0-.009 24.21-.009 39.39 0 15.848 11.922 19.893 33.09 32.31 20.919-12.778 33.589-16.957 33.589-32.804 0-17.377.001-38.887.001-38.887-12.767 1.306-21.317-1.192-33.645-10.948"/><clipPath id="0"><use xlink:href="#1"/></clipPath></defs><path fill="#832471" d="m110.24 33.581c33.635 0 64.35 12.67 87.68 33.466l22.382-24.357c-29.08-26.505-67.71-42.69-110.06-42.69-42.44 0-81.14 16.254-110.24 42.854l22.373 24.35c23.35-20.891 54.14-33.623 87.86-33.623"/><g fill="#fff"><path d="m26.958 37.854l2.423-1.666 5.539 8.06-1.57 1.078-3.746-5.451c-.107-.156-.257-.378-.447-.663-.19-.284-.338-.504-.443-.657l3.121 7.814-1.638 1.125-6.164-5.723c.105.152.257.369.454.649.198.28.351.499.459.655l3.746 5.452-1.569 1.078-5.539-8.06 2.451-1.684 5.822 5.329-2.899-7.336"/><path d="m42.479 38.812c-.258 1.029-.991 1.894-2.2 2.594-1.21.701-2.324.907-3.346.619-1.324-.311-2.428-1.227-3.308-2.746-.898-1.55-1.144-2.961-.736-4.234.258-1.029.991-1.895 2.201-2.594 1.209-.701 2.324-.908 3.345-.619 1.304.282 2.404 1.198 3.303 2.748.879 1.52 1.126 2.931.741 4.232m-1.85-.645c.112-.755-.107-1.609-.66-2.562-.55-.949-1.181-1.564-1.893-1.845s-1.418-.218-2.118.188c-.7.405-1.109.987-1.228 1.746-.118.758.1 1.613.651 2.566s1.187 1.567 1.903 1.842c.716.275 1.425.211 2.125-.195s1.108-.985 1.22-1.74"/><path d="m41.11 29.427l1.926-.938 6.477 4.43-2.986-6.13 1.711-.834 4.284 8.792-1.837.895-6.618-4.494 3.039 6.238-1.712.834-4.284-8.793"/><path d="m57.803 23.861l-4.793 1.951.783 1.924 4.399-1.792.641 1.573-4.399 1.791.948 2.33 5.02-2.043.663 1.629-6.864 2.795-3.688-9.06 6.643-2.705.652 1.604"/><path d="m64.61 19.694l2.196-.733-1.164 6.834 1.162 3.478-1.938.647-1.163-3.477-5.147-4.725 2.284-.764 3.276 3.396.494-4.656"/><path d="m68.24 23.903l3.559-1.022.494 1.722-3.558 1.022-.495-1.722"/><path d="m79.56 16.809c.386.337.645.787.776 1.352.136.582.098 1.084-.114 1.506-.118.236-.317.473-.6.711.527.064.959.258 1.296.584s.569.762.697 1.309c.131.564.108 1.104-.07 1.617-.11.34-.277.643-.5.908-.249.303-.571.546-.964.729-.394.183-.832.33-1.315.443l-4.292 1-2.222-9.524 4.603-1.073c1.165-.256 2.068-.109 2.705.437m-5.02 1.845l.49 2.1 2.314-.539c.414-.097.731-.254.952-.471.222-.218.285-.527.192-.928-.104-.443-.343-.696-.717-.76-.317-.029-.704.008-1.16.115l-2.071.483m.858 3.677l.592 2.54 2.312-.54c.413-.097.722-.228.926-.394.368-.304.484-.748.348-1.334-.115-.496-.396-.789-.845-.88-.25-.051-.579-.03-.989.061l-2.344.547"/><path d="m85.07 14.745l2.283-.368 4.973 9.104-2.188.353-.957-1.882-3.556.573-.335 2.09-2.11.341 1.89-10.211m.836 6.03l2.473-.398-1.832-3.604-.641 4"/><path d="m93.55 14.566c.711-.873 1.672-1.365 2.884-1.476 1.621-.147 2.855.282 3.703 1.288.469.566.746 1.151.832 1.756l-2.035.186c-.172-.455-.37-.792-.595-1.012-.4-.389-.957-.552-1.669-.486-.726.065-1.27.416-1.634 1.051-.364.636-.497 1.499-.397 2.592.101 1.092.396 1.891.887 2.395s1.077.725 1.758.662c.698-.064 1.209-.346 1.533-.846.18-.27.313-.662.401-1.176l2.02-.186c-.078 1.078-.444 1.982-1.101 2.713s-1.544 1.146-2.664 1.249c-1.386.126-2.517-.224-3.392-1.05-.875-.831-1.385-2.033-1.528-3.605-.155-1.699.177-3.051.996-4.055"/><path d="m102.84 12.783l2.01-.045.092 4.03 3.686-4.114 2.64-.061-3.921 4.113 4.35 5.66-2.627.059-3.109-4.199-.964 1.021.075 3.271-2.01.045-.222-9.778"/><path d="m123.43 16.284c-.104-.678-.447-1.171-1.028-1.479-.324-.171-.691-.271-1.102-.301-.785-.059-1.452.189-2 .744-.549.556-.867 1.428-.955 2.615-.089 1.198.122 2.066.633 2.604.51.538 1.113.833 1.811.885.684.051 1.258-.104 1.724-.465.466-.359.773-.854.922-1.482l-2.257-.166.12-1.629 4.063.301-.388 5.234-1.35-.1-.115-1.233c-.427.433-.804.731-1.131.897-.562.289-1.236.404-2.02.347-1.292-.096-2.317-.621-3.076-1.577-.794-.963-1.133-2.225-1.018-3.785.116-1.578.645-2.811 1.584-3.699.939-.888 2.123-1.279 3.553-1.174 1.239.092 2.212.48 2.918 1.164.705.684 1.079 1.5 1.119 2.447l-2-.148"/><path d="m128.16 13.68l2.055.3-.868 5.943c-.098.665-.09 1.161.022 1.491.165.578.657.926 1.478 1.047.815.119 1.385-.075 1.708-.582.202-.283.352-.757.448-1.422l.869-5.943 2.055.301-.869 5.948c-.15 1.028-.427 1.806-.83 2.333-.748.963-1.958 1.322-3.632 1.078-1.673-.244-2.732-.936-3.178-2.074-.235-.619-.277-1.443-.127-2.473l.869-5.947"/><path d="m141.1 15.856l2.26.491 1.3 10.293-2.165-.472-.203-2.103-3.519-.766-1.075 1.824-2.089-.455 5.491-8.812m-1.426 5.916l2.447.532-.389-4.02-2.058 3.49"/><path d="m154.38 19.541c.302.249.531.553.688.912.129.295.21.604.241.928.032.322-.006.668-.113 1.037-.131.446-.371.852-.722 1.217s-.811.562-1.381.59c.382.3.617.637.704 1.01s.034.889-.157 1.547l-.185.631c-.125.43-.192.725-.202.888-.019.257.05.471.206.641l-.068.235-2.166-.631c.001-.226.008-.406.02-.541.025-.277.076-.555.153-.832l.241-.877c.167-.602.18-1.03.039-1.287-.141-.258-.484-.467-1.03-.626l-1.916-.559-1.074 3.682-1.917-.56 2.737-9.389 4.491 1.31c.638.199 1.108.424 1.411.674m-4.46.205l-.735 2.523 2.111.615c.419.122.748.163.988.122.423-.07.711-.368.864-.896.166-.568.098-1-.204-1.303-.169-.17-.456-.312-.858-.431l-2.166-.63"/><path d="m160.96 21.496l2.17.8-.138 10.372-2.079-.766.09-2.109-3.379-1.246-1.317 1.656-2.01-.74 6.659-7.967m-2.232 5.662l2.351.865.172-4.04-2.523 3.172"/><path d="m167.95 24.16l1.954.878.744 7.812 2.797-6.221 1.736.781-4.01 8.92-1.864-.838-.785-7.961-2.846 6.328-1.736-.781 4.01-8.918"/><path d="m183.6 31.816l-.81 1.531-2.587-1.368-3.762 7.114-1.818-.961 3.762-7.115-2.598-1.373.81-1.531 7 3.703"/><path d="m190.3 37.887l-4.419-2.693-1.081 1.773 4.057 2.473-.885 1.45-4.056-2.473-1.31 2.147 4.623 2.818-.915 1.5-6.328-3.857 5.091-8.35 6.124 3.732-.901 1.48"/><path d="m198.06 43.24l-4.239-2.969-1.191 1.701 3.892 2.725-.975 1.392-3.892-2.726-1.442 2.061 4.435 3.105-1.01 1.439-6.07-4.252 5.611-8.01 5.874 4.115-.994 1.419"/></g><path fill="#832471" d="m112.01 58.55c-12.143 9.963-20.952 11.85-33.02 10.943 0 0-.009 24.21-.009 39.39 0 15.848 11.922 19.893 33.09 32.31 20.919-12.779 33.589-16.957 33.589-32.805 0-17.377.001-38.887.001-38.887-12.767 1.306-21.317-1.192-33.645-10.949"/><path clip-path="url(#0)" fill="#721b54" d="m43.12-3.062l68.941-.009v203.96l-68.941-.009v-203.94"/><path fill="#fff" d="m112.49 107.8c6.822-.045 12.532-5.887 12.469-12.727-.059-7.126-5.75-12.654-12.968-12.594-6.891.041-12.409 5.803-12.353 12.827.061 6.935 5.812 12.552 12.852 12.494m-.185-20.389c1.885 0 3.999.908 5.371 2.339 1.415 1.392 2.184 3.251 2.198 5.368.043 4.225-3.296 7.708-7.453 7.729-4.358.061-7.656-3.215-7.714-7.606-.022-4.351 3.299-7.79 7.598-7.83m-.194 22.244c-4.901.039-9.335 2.986-11.213 7.416l23.25-.004c-1.92-4.389-7.122-7.454-12.03-7.412"/></svg>